<svg xmlns="http://www.w3.org/2000/svg" width="100" height="100" viewBox="0 0 100 100">
  <defs>
    <style>
      .cls-1 {
        fill: #f28b00;
        fill-rule: evenodd;
      }
    </style>
  </defs>
  <path class="cls-1" d="M50,0A50,50,0,1,1,0,50,50,50,0,0,1,50,0Zm0,1A49,49,0,1,1,1,50,49,49,0,0,1,50,1Z"/>
  <path id="tablet" class="cls-1" d="M51.047,78a1.505,1.505,0,1,0-1.5-1.505A1.5,1.5,0,0,0,51.047,78ZM63.51,21H38.49a9.423,9.423,0,0,0-9.229,7.709C29.216,29.285,29.073,29.9,29,31h0V71.427c0.034,0.655-.02,1.023.033,1.7A9.511,9.511,0,0,0,38.49,82H63.508A9.52,9.52,0,0,0,73,72.471V30.529A9.519,9.519,0,0,0,63.51,21ZM39,24H63c3.3,0,5.134.963,6,4H33C33.866,24.963,35.7,24,39,24ZM64,79H39c-3.675,0-5.234-1.889-7-5H70C68.637,77.126,67.731,78.159,64,79Zm6-8H32V31H70V71h0Z"/>
</svg>
