<svg xmlns="http://www.w3.org/2000/svg" xmlns:xlink="http://www.w3.org/1999/xlink" preserveAspectRatio="xMidYMid" width="28" height="24" viewBox="0 0 28 24">
  <defs>
    <style>
      .cls-1 {
        fill: #484848;
        fill-rule: evenodd;
      }
    </style>
  </defs>
  <path d="M26.000,24.000 L23.000,24.000 L23.000,22.000 L25.000,22.000 C25.552,22.000 26.000,21.552 26.000,21.000 L26.000,3.000 C26.000,2.448 25.552,2.000 25.000,2.000 L23.000,2.000 L23.000,0.000 L26.000,0.000 C27.105,0.000 28.000,0.895 28.000,2.000 L28.000,22.000 C28.000,23.105 27.105,24.000 26.000,24.000 ZM19.000,14.000 L16.000,14.000 L16.000,17.000 C16.000,17.552 15.552,18.000 15.000,18.000 L13.000,18.000 C12.448,18.000 12.000,17.552 12.000,17.000 L12.000,14.000 L9.000,14.000 C8.448,14.000 8.000,13.552 8.000,13.000 L8.000,11.000 C8.000,10.448 8.448,10.000 9.000,10.000 L12.000,10.000 L12.000,7.000 C12.000,6.448 12.448,6.000 13.000,6.000 L15.000,6.000 C15.552,6.000 16.000,6.448 16.000,7.000 L16.000,10.000 L19.000,10.000 C19.552,10.000 20.000,10.448 20.000,11.000 L20.000,13.000 C20.000,13.552 19.552,14.000 19.000,14.000 ZM0.000,22.000 L0.000,2.000 C0.000,0.895 0.895,0.000 2.000,0.000 L5.000,0.000 L5.000,2.000 L3.000,2.000 C2.448,2.000 2.000,2.448 2.000,3.000 L2.000,21.000 C2.000,21.552 2.448,22.000 3.000,22.000 L5.000,22.000 L5.000,24.000 L2.000,24.000 C0.895,24.000 0.000,23.105 0.000,22.000 Z" class="cls-1"/>
</svg>
